# xmcd
#
# Track frame offsets: 
#        150
#        15705
#        36890
#        50377
#        66110
#        78942
#        96100
#        110415
#        128260
#        163502
#
# Disc length: 2414 seconds
#
# Revision: 0
# Processed by: cddbd v1.4PL0 Copyright (c) Steve Scherf et al.
# Submitted via: ExactAudioCopy v0.90a11
#
DISCID=70096c0a
DTITLE=John Lee Hooker - That's Where It's At!
DYEAR=1900
DGENRE=
TTITLE0=Teachin' The Blues
TTITLE1=Goin' To Louisiana
TTITLE2=I Need You
TTITLE3=My Love Comes Down For You
TTITLE4=Please Don't Go
TTITLE5=I Just Don't Know
TTITLE6=Slow And Easy
TTITLE7=Two White Horses
TTITLE8=Feel So Bad
TTITLE9=Grinder Man
EXTD=
EXTT0=
EXTT1=
EXTT2=
EXTT3=
EXTT4=
EXTT5=
EXTT6=
EXTT7=
EXTT8=
EXTT9=
PLAYORDER=
